# xmcd CD database file
#
# Track frame offsets:
#	150
#	22560
#	39405
#	73092
#	92465
#	115605
#	133810
#	150075
#	171012
#
# Disc length: 2439 seconds
#
# Revision: 0
# Processed by: cddbd v1.4PL0 Copyright (c) Steve Scherf et al.
# Submitted via: CDex 1.50
#
DISCID=5b098509
DTITLE=Scott Fitzgerald - SoJourn
DYEAR=1900
DGENRE=New Age
TTITLE0=Deva
TTITLE1=Bridalveil
TTITLE2=Forgiveness
TTITLE3=Je T'Aime
TTITLE4=Cumulus
TTITLE5=Celebration
TTITLE6=Bountiful
TTITLE7=To My Father
TTITLE8=Hymn to Peace
EXTD=
EXTT0=
EXTT1=
EXTT2=
EXTT3=
EXTT4=
EXTT5=
EXTT6=
EXTT7=
EXTT8=
PLAYORDER=
